<?xml version="1.0" encoding="utf-8"?>
<!-- Generator: Adobe Illustrator 23.0.3, SVG Export Plug-In . SVG Version: 6.00 Build 0)  -->
<svg version="1.1" id="Layer_1" xmlns="http://www.w3.org/2000/svg" xmlns:xlink="http://www.w3.org/1999/xlink" x="0px" y="0px"
	 viewBox="0 0 79.9 79.9" style="enable-background:new 0 0 79.9 79.9;" xml:space="preserve">
<style type="text/css">
	.st0{fill-rule:evenodd;clip-rule:evenodd;fill:#DE4A09;}
	.st1{fill-rule:evenodd;clip-rule:evenodd;fill:#FEFEFE;}
</style>
<g>
	<path class="st0" d="M0,79.9h79.9V0H0V79.9z"/>
	<path class="st1" d="M17.4,57.9c-0.4,0.1-2.6,0.7-4.5,0.7c-2.4,0-4.9-0.7-4.9-6.5c0-5.7,3.3-6.7,5.8-6.7c1.8,0,3.2,0.7,3.2,0.7v1.7
		c0,0-1.6-0.6-3.2-0.6c-1.6,0-3.5,0.7-3.5,4.8c0,4.2,1.5,4.8,2.8,4.8c0.9,0,2.1-0.3,2.1-0.3v-4.3h-2L13,50.6h4.4
		C17.4,50.6,17.4,57.9,17.4,57.9z M18.8,45.4l9.4,0l-0.3,2h-3.1v11.1h-2.5v-11h-3.6V45.4z M30.2,45.5l4.4-0.1c5.5,0,5.3,5.9,2.2,6.2
		c3.5,0.5,3.3,5.7,0,6.9h-6.5C30.2,58.5,30.2,45.5,30.2,45.5z M32.6,47.5v3.4h2.3c1.3-0.1,2-3,0.1-3.4H32.6z M32.6,52.7v3.8h2.3
		c2.6,0,2-3.7,0.1-3.8H32.6z M41.7,49.1c3.3-1.5,7.1-1.2,7.7,1.3v8.1h-2.3v-1.3c-2,2.2-6.8,1.8-6.2-2.7c0.4-2.1,2.7-2.7,6-2.4
		c0.3-2.9-3.4-1.5-5.2-1C41.7,51.1,41.7,49.1,41.7,49.1z M43.6,54.2c-1.5,2.5,1.5,3.3,3.3,1.4v-1.7C45.8,53.5,44.1,53.5,43.6,54.2z
		 M54.1,51.5l0,7.1h-2.6V48.3H54v1.2c3.6-2.1,6.5-1.5,7,1.5v7.5h-2.6v-7.1C57.9,49.6,54.8,50.8,54.1,51.5L54.1,51.5z M62.9,58.6
		V45.4h2.5v13.1C65.4,58.6,62.9,58.6,62.9,58.6z M69,48.3h3l-3.5,4.6l3.8,5.7l-2.8,0l-3.7-5.8L69,48.3z M45.6,31.4h20v-20h-20V31.4z
		"/>
</g>
</svg>
